<svg width="24" height="25" viewBox="0 0 24 25" fill="none" xmlns="http://www.w3.org/2000/svg">
<g clip-path="url(#clip0_601_338)">
<path d="M12 11.4C11.39 11.4 10.9 11.89 10.9 12.5C10.9 13.11 11.39 13.6 12 13.6C12.61 13.6 13.1 13.11 13.1 12.5C13.1 11.89 12.61 11.4 12 11.4ZM12 2.5C6.48 2.5 2 6.98 2 12.5C2 18.02 6.48 22.5 12 22.5C17.52 22.5 22 18.02 22 12.5C22 6.98 17.52 2.5 12 2.5ZM14.19 14.69L6 18.5L9.81 10.31L18 6.5L14.19 14.69Z" fill="white"/>
</g>
<defs>
<clipPath id="clip0_601_338">
<rect width="24" height="24" fill="white" transform="translate(0 0.5)"/>
</clipPath>
</defs>
</svg>
