<svg width="137" height="137" viewBox="0 0 137 137" fill="none" xmlns="http://www.w3.org/2000/svg">
<g clip-path="url(#clip0_601_241)">
<path d="M100.176 48.5534C99.7893 48.4866 99.5624 48.5801 99.2822 48.9137C98.8417 49.4342 98.815 49.2741 100.216 53.0777C101.644 56.9882 102.739 61.4458 103.633 67.0111C103.993 69.2132 104.02 69.7204 103.726 69.7204C103.553 69.7071 101.644 69.4268 99.4957 69.0664C94.9714 68.3324 91.5547 68.0388 90.5538 68.2657C89.2992 68.5593 88.8321 69.4001 89.2992 70.5078C89.5528 71.1351 89.6195 71.2018 90.5938 71.5355C94.0638 72.7099 104.154 73.9378 106.516 73.444C107.343 73.2838 107.797 72.75 107.877 71.8958C107.971 70.8415 105.889 60.5649 105.021 57.8023C104.154 55.0663 103.393 53.2379 102.272 51.2093C101.057 49.0071 100.764 48.6601 100.176 48.5534Z" fill="#8E8B9C" fill-opacity="0.22"/>
<path d="M89.0184 45.7774C81.9049 40.212 72.616 38.13 63.1936 39.9718C60.858 40.4389 56.3337 41.947 53.9047 43.0948C41.5728 48.9137 30.9359 60.9386 26.6384 73.9645C25.6775 76.8739 25.6508 77.5679 26.4916 78.4087C27.3324 79.2496 28.934 79.3029 29.9883 78.5422C30.4288 78.2352 30.7624 77.6614 31.5365 75.8196C37.7558 61.2189 48.8198 50.4485 61.7655 46.3379C68.6522 44.1491 76.5531 44.6296 82.4254 47.6191C85.9221 49.3808 89.0451 52.1035 93.5695 57.2951C95.5314 59.5506 95.6782 59.6974 96.1586 59.7241C96.7725 59.7508 97.6 59.0034 97.7201 58.2961C97.8536 57.4953 96.172 54.1054 94.3702 51.5296C93.129 49.7812 90.4865 46.9251 89.0184 45.7774Z" fill="#8E8B9C" fill-opacity="0.22"/>
</g>
<defs>
<clipPath id="clip0_601_241">
<rect width="96.6366" height="96.6366" fill="white" transform="translate(68.332) rotate(45)"/>
</clipPath>
</defs>
</svg>
